<?xml version="1.0" encoding="utf-8"?>
<!-- Generator: Adobe Illustrator 25.2.3, SVG Export Plug-In . SVG Version: 6.00 Build 0)  -->
<svg version="1.1" id="Capa_1" xmlns="http://www.w3.org/2000/svg" xmlns:xlink="http://www.w3.org/1999/xlink" x="0px" y="0px"
	 viewBox="0 0 220.82 181" style="enable-background:new 0 0 220.82 181;" xml:space="preserve">
<style type="text/css">
	.st0{opacity:0.4;}
	.st1{fill:#FFFFFF;stroke:#000000;stroke-width:1.5;stroke-miterlimit:10;}
</style>
<g class="st0">
	<path class="st1" d="M214.99,133.76c-8.33-10.76-19.51-8.39-30.15-5.32c-21.63,6.24-43.3,6.91-65.12,1.75
		c-5.58-1.32-13.1-1.47-13.21-9.71c-0.12-9.35,7.58-9,14.07-10.09c22.66-3.79,45.69-6.22,66.6-16.9
		c14.19-7.25,26.44-15.85,26.68-34.2c0.24-18.35-10.11-29.53-24.86-37.64C142.29-4.04,93.48-4.98,44.04,11.58
		C16.7,20.73,0.46,39.6,1.84,56.67c1.54,18.92,21.24,34.92,50.15,40.95c13.78,2.87,27.49,6.04,43.18,9.51
		c-15.38,14.18-32.89,10.42-48.55,13.2c-13.64,2.42-27.1,4.7-38.11,13.84C-0.42,141.61-2,150.8,4.37,160.48
		c6.21,9.44,14.78,12.5,25.63,7.43c9.16-4.28,16.12-11.34,23.54-17.82c15.45-13.49,32.02-15.26,50.02-5.47
		c16.36,8.9,32.75,17.74,49.29,26.29c11.3,5.84,23.21,9.58,36.21,9.59c13.78,0,22.81-6.63,28.23-18.79
		C221.6,152.03,221.73,142.48,214.99,133.76z M88.45,40.27C77.5,47.75,75.57,58,79.83,70.68c6.11,18.18,4.8,19.19-14.46,14.55
		c-4.76-1.14-9.69-2.37-13.93-4.66c-11.99-6.49-22.85-14.9-21.71-30.13c1.07-14.23,11.78-21.46,24.14-26.32
		c11.9-4.69,24.2-6.83,35.15-6.02c21.44-0.44,40.06,3.57,56.98,13.55c24.16,14.25,24.29,37.28,0.19,51.27
		c-6.01,3.49-13.13,5.52-20.01,6.95c-5.77,1.2-13.41,2.89-17.45-1.37c-5.45-5.75,2.59-10.53,4.7-15.59
		c4.59-10.94,6.75-20.95-3.9-29.74C103,37.76,95.73,35.31,88.45,40.27z"/>
</g>
</svg>
